<?xml version="1.0" encoding="UTF-8" standalone="no"?>
<!-- Created with Inkscape (http://www.inkscape.org/) -->

<svg
   xmlns:dc="http://purl.org/dc/elements/1.1/"
   xmlns:cc="http://creativecommons.org/ns#"
   xmlns:rdf="http://www.w3.org/1999/02/22-rdf-syntax-ns#"
   xmlns:svg="http://www.w3.org/2000/svg"
   xmlns="http://www.w3.org/2000/svg"
   xmlns:sodipodi="http://sodipodi.sourceforge.net/DTD/sodipodi-0.dtd"
   xmlns:inkscape="http://www.inkscape.org/namespaces/inkscape"
   width="210mm"
   height="297mm"
   viewBox="0 0 744.09448819 1052.3622047"
   id="svg4334"
   version="1.1"
   inkscape:version="0.91 r13725"
   sodipodi:docname="AsparagusMyCookbook.svg">
  <defs
     id="defs4336" />
  <sodipodi:namedview
     id="base"
     pagecolor="#ffffff"
     bordercolor="#666666"
     borderopacity="1.0"
     inkscape:pageopacity="0.0"
     inkscape:pageshadow="2"
     inkscape:zoom="0.35"
     inkscape:cx="-112.14286"
     inkscape:cy="520"
     inkscape:document-units="px"
     inkscape:current-layer="layer1"
     showgrid="false"
     inkscape:window-width="1866"
     inkscape:window-height="1025"
     inkscape:window-x="0"
     inkscape:window-y="24"
     inkscape:window-maximized="1" />
  <metadata
     id="metadata4339">
    <rdf:RDF>
      <cc:Work
         rdf:about="">
        <dc:format>image/svg+xml</dc:format>
        <dc:type
           rdf:resource="http://purl.org/dc/dcmitype/StillImage" />
        <dc:title></dc:title>
      </cc:Work>
    </rdf:RDF>
  </metadata>
  <g
     inkscape:label="Layer 1"
     inkscape:groupmode="layer"
     id="layer1">
    <g
       id="g4321"
       transform="matrix(0.91305498,0,0,0.91305498,-1816.7612,-160.09866)">
      <circle
         r="394.33789"
         cy="746.19604"
         cx="2396.5583"
         id="path5994"
         style="opacity:1;fill:#718000;fill-opacity:1;stroke:none;stroke-width:36.7241478;stroke-linecap:butt;stroke-linejoin:round;stroke-miterlimit:4;stroke-dasharray:none;stroke-dashoffset:0;stroke-opacity:1" />
      <path
         id="path6046"
         d="m 2290.9414,499.90625 0,22.11133 8.041,25.12695 0,5.02539 -25.1269,-22.11133 4.0195,21.10743 11.8105,20.85546 -0.7539,13.31641 -31.1582,-32.16211 -4.0214,200.01367 93.4746,122.62305 -20.1016,-7.03711 -53.2695,-23.11719 -22.1133,-6.02929 -27.1367,145.73828 157.373,154.43751 a 394.33789,394.33789 0 0 0 14.5801,0.7285 394.33789,394.33789 0 0 0 394.3379,-394.33789 394.33789,394.33789 0 0 0 -0.4258,-11.99609 l -211.6484,-187.41016 -23.5411,18.44727 23.1192,12.0625 -7.0371,15.07617 -88.4473,-63.32227 -22.1133,16.08204 -59.3007,-45.22852 -4.0196,6.0293 7.0352,49.25 -28.1426,-43.21875 -16.082,44.22461 -69.3516,-56.28516 z"
         style="opacity:0.553;fill:#5c6800;fill-opacity:1;fill-rule:evenodd;stroke:none;stroke-width:1px;stroke-linecap:butt;stroke-linejoin:miter;stroke-opacity:1"
         inkscape:connector-curvature="0" />
      <path
         id="path5996"
         d="m 2286.7465,492.39083 c 0,0 -8.0639,4.34893 -15.5045,8.76516 4.1849,4.61794 8.6049,10.55109 12.4106,17.11022 2.676,4.61256 5.0598,9.50303 6.7177,14.4836 0.9228,-1.01609 1.9155,-1.959 3.0035,-2.8072 3.0983,-2.41535 6.8156,-3.96826 11.0717,-4.75066 1.3947,-0.25632 2.8488,-0.43131 4.3561,-0.52413 l -22.0551,-32.27699 z m 113.5799,2.04553 c 0,0 -8.8978,3.78584 -17.1515,7.70902 3.9308,5.31084 7.9751,12.03848 11.3133,19.3658 2.3472,5.15277 4.3593,10.57142 5.6007,16.01089 1.0707,-0.98232 2.2062,-1.87792 3.4334,-2.66586 3.4947,-2.24376 7.5519,-3.51606 12.0985,-3.91439 1.4899,-0.13045 3.0352,-0.16592 4.627,-0.11189 l -19.9214,-36.39357 z m -137.2881,11.8786 c -1.1851,0.81297 -2.2043,1.55554 -2.9092,2.16725 -5.2953,4.5945 -5.1532,11.47421 -5.1532,11.47421 -0.5012,5.69787 -1.027,11.69049 -1.5311,17.4243 5.7005,0.653 10.551,3.53391 14.1989,7.42438 3.7589,4.00888 6.4265,9.04799 8.3784,14.41491 0.5537,1.52239 1.0432,3.07093 1.4861,4.63483 1.8945,-7.17259 3.6514,-13.42238 5.7047,-18.68264 -0.311,-6.43487 -3.4351,-14.64075 -7.7836,-22.13571 -3.7971,-6.54434 -8.465,-12.57172 -12.391,-16.72153 z m 111.0024,0.46133 c -1.3255,0.74085 -2.4671,1.42802 -3.2685,2.00431 -6.0193,4.32855 -6.5606,11.62536 -6.5606,11.62536 -1.0969,5.98068 -2.2494,12.2677 -3.3529,18.2861 5.9191,1.26698 10.7257,4.80865 14.1655,9.2952 3.5445,4.62313 5.8382,10.22504 7.3499,16.10315 0.4288,1.66741 0.7888,3.35869 1.0972,5.05886 2.7074,-7.40099 5.1779,-13.84021 7.8603,-19.2009 0.3181,-6.84283 -2.1395,-15.84382 -5.9541,-24.21657 -3.3305,-7.3108 -7.6308,-14.16634 -11.3368,-18.95551 z m 106.3068,14.8723 -30.7282,24.16553 c 1.41,0.54114 2.7436,1.1427 3.9969,1.80603 3.8248,2.02441 6.9022,4.6239 9.1322,7.85822 0.7831,1.13579 1.4469,2.33241 2.0221,3.5787 3.077,-4.25281 6.8198,-8.20217 10.7576,-11.79812 5.5995,-5.11357 11.5962,-9.44709 16.9748,-12.59513 -5.7709,-6.44687 -12.1554,-13.01523 -12.1554,-13.01523 z m -172.3801,12.6285 c -0.078,0.008 -0.1679,0.0105 -0.2454,0.0196 -3.8264,0.43141 -6.386,1.49576 -8.5041,3.14682 -2.4202,1.88691 -4.4475,4.80377 -6.378,9.29715 -3.8534,8.96805 -6.8932,23.72152 -12.6972,43.92787 -0.011,0.10212 -0.012,0.21461 -0.022,0.31607 l -9.4582,-0.95014 c 0.7281,-7.2218 -0.2893,-18.53042 -3.5747,-27.56362 -1.6429,-4.51659 -3.8402,-8.45731 -6.3781,-11.16405 -2.4014,-2.56118 -4.9524,-4.03312 -8.1017,-4.44441 -5.805,66.01577 -11.7509,133.7169 -17.5695,200.02816 16.7013,14.76061 33.6593,27.41341 50.9321,37.99348 7.4227,-84.40442 14.8473,-169.13822 21.9964,-250.60696 z m 110.1818,6.63522 c -4.0592,0.0705 -6.8536,0.93608 -9.2422,2.46956 -2.7298,1.75289 -5.1496,4.63765 -7.6265,9.19899 -4.9434,9.10367 -9.6133,24.41305 -17.7306,45.21566 -0.021,0.10697 -0.034,0.22742 -0.055,0.33372 l -9.8331,-1.96308 c 1.4877,-7.57086 1.553,-19.64486 -0.9913,-29.53849 -1.2722,-4.94682 -3.1839,-9.3382 -5.5772,-12.45967 -2.2642,-2.95357 -4.7934,-4.77069 -8.0585,-5.52411 -15.2436,83.12572 -30.8981,168.52631 -46.0028,251.00742 17.7669,8.537 35.8819,15.00544 54.4009,19.46394 17.1683,-93.59469 34.4157,-187.79811 50.9773,-278.20198 -0.082,-7e-5 -0.1767,-0.003 -0.2591,-0.002 l 0,0 z m 80.6336,1.13663 c -4.9911,2.7792 -11.2562,7.12798 -16.8433,12.22999 -6.3985,5.84313 -11.8443,12.73039 -14.0733,18.77491 0.3789,5.63405 0.1781,12.12418 -0.1688,19.53462 0.8922,-1.35867 1.8257,-2.68945 2.8111,-3.97524 3.4736,-4.53303 7.5289,-8.53773 12.3183,-11.23275 4.6477,-2.61542 10.142,-3.90604 15.7754,-2.81703 1.2412,-5.62052 2.5399,-11.49344 3.773,-17.0788 0,0 2.1988,-6.52236 -1.4723,-12.49501 -0.4887,-0.79514 -1.234,-1.8094 -2.1201,-2.94069 z m 76.7466,0.87553 -32.0925,22.32416 c 1.3761,0.62275 2.6745,1.30198 3.887,2.03768 3.6995,2.24478 6.6203,5.02111 8.6572,8.38039 0.7154,1.17974 1.3067,2.41277 1.8079,3.6906 3.3207,-4.06539 7.2895,-7.78904 11.4311,-11.14835 5.8893,-4.77705 12.1297,-8.75244 17.6834,-11.58021 -5.3837,-6.77363 -11.3741,-13.70427 -11.3741,-13.70427 z m -128.0027,12.30459 c -19.2427,87.07745 -39.3252,177.91419 -59.2143,268.02537 17.8221,2.80984 36.0217,3.85044 54.6541,3.14682 17.6044,-79.63296 35.8005,-162.00832 53.5823,-242.54457 -3.1275,-0.55351 -6,0.0862 -9.0596,1.808 -3.2336,1.81963 -6.5112,4.91896 -9.4346,8.73374 -5.8467,7.62949 -10.2139,18.10867 -11.6881,25.21578 l -9.309,-1.93167 c 0.021,-0.0996 0.055,-0.20759 0.076,-0.3082 0.532,-21.01668 2.062,-36.00105 1.0797,-45.71231 -0.4921,-4.86574 -1.548,-8.25848 -3.2901,-10.78517 -1.5241,-2.21052 -3.6482,-3.99311 -7.1672,-5.55356 -0.071,-0.0316 -0.1555,-0.0634 -0.2277,-0.0942 l 0,0 z m 145.2111,9.14011 c -5.1453,2.48228 -11.6542,6.4567 -17.5303,11.22293 -6.7297,5.45854 -12.5682,12.01535 -15.1471,17.91901 0.048,5.64659 -0.5313,12.11591 -1.3114,19.4934 0.9701,-1.3042 1.9799,-2.58052 3.0389,-3.80642 3.7331,-4.32189 8.0154,-8.08261 12.9543,-10.49266 4.793,-2.33887 10.3547,-3.30739 15.9147,-1.89045 1.568,-5.53825 3.2064,-11.324 4.7644,-16.82754 0,0 2.5773,-6.37853 -0.738,-12.55587 -0.4413,-0.82242 -1.1273,-1.88118 -1.9455,-3.0624 z m -51.9372,10.15698 c -22.9872,81.14289 -46.9282,165.6184 -70.7181,249.66271 19.4184,-2.39856 39.3029,-6.56166 59.7111,-12.45575 19.2572,-67.97015 39.0472,-137.85089 58.2721,-205.76037 -3.09,-0.73564 -5.9986,-0.26176 -9.1538,1.27797 -3.3346,1.6273 -6.7897,4.52538 -9.9313,8.16249 -6.2834,7.2742 -11.2531,17.48281 -13.1408,24.49141 l -9.1794,-2.47545 c 0.026,-0.0984 0.064,-0.20536 0.09,-0.30427 1.7612,-20.94947 4.1674,-35.81888 3.7553,-45.57098 -0.2063,-4.88618 -1.0629,-8.33356 -2.6541,-10.95791 -1.3919,-2.29593 -3.4076,-4.2001 -6.8295,-5.96385 -0.069,-0.0358 -0.15,-0.0707 -0.2198,-0.106 l 0,0 z m -311.3329,235.93881 c -5.4361,62.03451 -10.8173,123.48513 -15.4829,177.08563 11.447,13.08691 29.5928,17.19831 53.6687,4.70546 4.3629,-49.09122 8.8247,-99.60792 13.3038,-150.43872 -17.5734,-8.81262 -34.7529,-19.25035 -51.4896,-31.35237 z m 73.9669,41.66248 c -10.0644,54.99166 -20.3075,110.93726 -29.0948,159.09396 10.7063,15.009 29.3466,21.1928 55.8732,10.4004 9.1491,-49.63263 18.525,-100.65699 27.9543,-152.01705 -18.5864,-4.23412 -36.8473,-10.04208 -54.7327,-17.47731 z m 209.7985,18.01716 c -19.6327,3.95733 -39.071,6.45836 -58.2722,7.4813 -13.3085,47.04774 -26.5211,93.7918 -39.3519,139.2767 18.0593,20.2383 36.4806,22.8484 51.8332,14.6877 13.8785,-48.85925 29.8379,-105.1636 45.7909,-161.4457 z m -135.9827,3.23711 c -9.742,44.17437 -19.4055,88.02611 -28.8063,130.79229 19.2128,19.1464 37.7579,20.6764 52.6067,11.6312 9.2374,-41.66221 20.0082,-90.38648 30.465,-137.66105 -18.341,-0.18688 -36.4425,-1.76882 -54.2654,-4.76244 z"
         style="color:#000000;font-style:normal;font-variant:normal;font-weight:normal;font-stretch:normal;font-size:medium;line-height:normal;font-family:sans-serif;text-indent:0;text-align:start;text-decoration:none;text-decoration-line:none;text-decoration-style:solid;text-decoration-color:#000000;letter-spacing:normal;word-spacing:normal;text-transform:none;direction:ltr;block-progression:tb;writing-mode:lr-tb;baseline-shift:baseline;text-anchor:start;white-space:normal;clip-rule:nonzero;display:inline;overflow:visible;visibility:visible;opacity:1;isolation:auto;mix-blend-mode:normal;color-interpolation:sRGB;color-interpolation-filters:linearRGB;solid-color:#000000;solid-opacity:1;fill:#ffffff;fill-opacity:1;fill-rule:evenodd;stroke:none;stroke-width:50.59999847;stroke-linecap:butt;stroke-linejoin:miter;stroke-miterlimit:4;stroke-dasharray:none;stroke-dashoffset:0;stroke-opacity:1;color-rendering:auto;image-rendering:auto;shape-rendering:auto;text-rendering:auto;enable-background:accumulate"
         inkscape:connector-curvature="0" />
    </g>
  </g>
</svg>
