<?xml version="1.0" encoding="UTF-8" standalone="no"?>
<!-- Created with Inkscape (http://www.inkscape.org/) -->

<svg
   xmlns:dc="http://purl.org/dc/elements/1.1/"
   xmlns:cc="http://creativecommons.org/ns#"
   xmlns:rdf="http://www.w3.org/1999/02/22-rdf-syntax-ns#"
   xmlns:svg="http://www.w3.org/2000/svg"
   xmlns="http://www.w3.org/2000/svg"
   xmlns:xlink="http://www.w3.org/1999/xlink"
   xmlns:sodipodi="http://sodipodi.sourceforge.net/DTD/sodipodi-0.dtd"
   xmlns:inkscape="http://www.inkscape.org/namespaces/inkscape"
   width="210mm"
   height="297mm"
   viewBox="0 0 744.09448819 1052.3622047"
   id="svg9497"
   version="1.1"
   inkscape:version="0.91 r13725"
   sodipodi:docname="CabinetBeta.svg">
  <defs
     id="defs9499">
    <linearGradient
       inkscape:collect="always"
       xlink:href="#linearGradient7931"
       id="linearGradient7937"
       x1="2277.5908"
       y1="1261.1356"
       x2="2586.2429"
       y2="1526.3007"
       gradientUnits="userSpaceOnUse"
       gradientTransform="matrix(1.4378006,0,0,1.4378006,-2980.6607,-1358.8728)" />
    <linearGradient
       inkscape:collect="always"
       id="linearGradient7931">
      <stop
         style="stop-color:#12586f;stop-opacity:1;"
         offset="0"
         id="stop7933" />
      <stop
         style="stop-color:#12586f;stop-opacity:0;"
         offset="1"
         id="stop7935" />
    </linearGradient>
  </defs>
  <sodipodi:namedview
     id="base"
     pagecolor="#ffffff"
     bordercolor="#666666"
     borderopacity="1.0"
     inkscape:pageopacity="0.0"
     inkscape:pageshadow="2"
     inkscape:zoom="0.35"
     inkscape:cx="-526.33066"
     inkscape:cy="323.45637"
     inkscape:document-units="px"
     inkscape:current-layer="layer1"
     showgrid="false"
     inkscape:window-width="1600"
     inkscape:window-height="876"
     inkscape:window-x="133"
     inkscape:window-y="1073"
     inkscape:window-maximized="1" />
  <metadata
     id="metadata9502">
    <rdf:RDF>
      <cc:Work
         rdf:about="">
        <dc:format>image/svg+xml</dc:format>
        <dc:type
           rdf:resource="http://purl.org/dc/dcmitype/StillImage" />
        <dc:title></dc:title>
      </cc:Work>
    </rdf:RDF>
  </metadata>
  <g
     inkscape:label="Layer 1"
     inkscape:groupmode="layer"
     id="layer1">
    <path
       sodipodi:nodetypes="csssssssc"
       inkscape:connector-curvature="0"
       id="rect7881"
       d="m 382.77158,258.10809 -86.80649,1.07835 c -12.4216,0.15428 -22.42351,10.00091 -22.42351,22.42351 l 0,52.11553 c 0,12.42259 10.00091,22.4235 22.42351,22.4235 l 85.72814,0 c 12.42259,0 12.72238,-14.66398 22.4235,-22.4235 l 34.14777,-27.31347 c 9.70113,-7.75952 -43.07133,-48.45819 -55.49292,-48.30392 z"
       style="opacity:1;fill:#810055;fill-opacity:1;stroke:none;stroke-width:12.60000038;stroke-linecap:butt;stroke-linejoin:miter;stroke-miterlimit:4;stroke-dasharray:none;stroke-dashoffset:0;stroke-opacity:0.87878789" />
    <path
       sodipodi:nodetypes="csssssssc"
       inkscape:connector-curvature="0"
       id="rect7883"
       d="m 381.69323,263.13651 -85.72814,0 c -12.4226,0 -22.42351,10.00091 -22.42351,22.42351 l 0,52.11553 c 0,12.42259 10.00091,22.4235 22.42351,22.4235 l 85.72814,0 c 12.42259,0 11.71045,-16.13456 22.4235,-22.4235 l 39.18007,-23.00007 c 10.71305,-6.28894 -49.18098,-51.53897 -61.60357,-51.53897 z"
       style="opacity:1;fill:#a5006d;fill-opacity:1;stroke:none;stroke-width:12.60000038;stroke-linecap:butt;stroke-linejoin:miter;stroke-miterlimit:4;stroke-dasharray:none;stroke-dashoffset:0;stroke-opacity:0.87878789" />
    <path
       sodipodi:nodetypes="csssssssc"
       inkscape:connector-curvature="0"
       id="rect7893"
       d="m 311.60045,247.68404 -222.678651,0 c -12.422597,0 -22.423507,10.00091 -22.423507,22.4235 l 0,52.11553 c 0,12.4226 10.00091,22.42351 22.423507,22.42351 l 222.678651,0 c 12.4226,0 11.08098,-17.35713 22.42351,-22.42351 l 33.78831,-15.09216 c 11.34252,-5.06638 -43.78922,-59.44687 -56.21182,-59.44687 z"
       style="opacity:1;fill:#bf0049;fill-opacity:1;stroke:none;stroke-width:12.60000038;stroke-linecap:butt;stroke-linejoin:miter;stroke-miterlimit:4;stroke-dasharray:none;stroke-dashoffset:0;stroke-opacity:0.87878789" />
    <path
       sodipodi:nodetypes="csssssssc"
       inkscape:connector-curvature="0"
       id="rect7895"
       d="m 311.60045,251.63411 -222.678651,0 c -12.422597,0 -22.423507,10.00091 -22.423507,22.4235 l 0,52.11553 c 0,12.4226 10.00091,22.42351 22.423507,22.42351 l 222.678651,0 c 12.4226,0 10.25152,-19.941 22.42351,-22.42351 l 35.22611,-7.18426 c 12.17199,-2.4825 -45.22702,-67.35477 -57.64962,-67.35477 z"
       style="opacity:1;fill:#f3116b;fill-opacity:1;stroke:none;stroke-width:12.60000038;stroke-linecap:butt;stroke-linejoin:miter;stroke-miterlimit:4;stroke-dasharray:none;stroke-dashoffset:0;stroke-opacity:0.87878789" />
    <rect
       style="opacity:1;fill:#064e83;fill-opacity:1;stroke:none;stroke-width:12.60000038;stroke-linecap:butt;stroke-linejoin:miter;stroke-miterlimit:4;stroke-dasharray:none;stroke-dashoffset:0;stroke-opacity:0.87878789"
       id="rect7533"
       width="731.86938"
       height="511.85703"
       x="5.636754"
       y="305.18323"
       ry="57.557659"
       rx="0" />
    <rect
       style="opacity:1;fill:#1d93be;fill-opacity:1;stroke:none;stroke-width:12.60000038;stroke-linecap:butt;stroke-linejoin:miter;stroke-miterlimit:4;stroke-dasharray:none;stroke-dashoffset:0;stroke-opacity:0.87878789"
       id="rect7539"
       width="731.86938"
       height="511.85703"
       x="5.636754"
       y="290.80524"
       ry="57.557659"
       rx="0" />
    <rect
       rx="0"
       ry="57.557659"
       y="299.43204"
       x="5.636754"
       height="511.85703"
       width="731.86938"
       id="rect7537"
       style="opacity:1;fill:#0e63c1;fill-opacity:1;stroke:none;stroke-width:12.60000038;stroke-linecap:butt;stroke-linejoin:miter;stroke-miterlimit:4;stroke-dasharray:none;stroke-dashoffset:0;stroke-opacity:0.87878789" />
    <path
       style="opacity:0.58200001;fill:url(#linearGradient7937);fill-opacity:1;fill-rule:evenodd;stroke:none;stroke-width:1px;stroke-linecap:butt;stroke-linejoin:miter;stroke-opacity:1"
       d="m 489.26329,462.26729 -235.69549,36.00397 366.75909,313.01652 59.62182,0 c 31.88697,0 57.55703,-25.66991 57.55703,-57.55688 l 0,-103.93544 z"
       id="path7929"
       inkscape:connector-curvature="0"
       sodipodi:nodetypes="cccsscc" />
    <g
       id="g7873"
       transform="matrix(1.570846,0,0,1.0448125,-3290.8562,-856.55252)">
      <rect
         rx="0"
         ry="9.2457275"
         y="-1300.1974"
         x="-2407.916"
         height="39.979797"
         width="152.83186"
         id="rect7871"
         style="opacity:1;fill:#b3b3b3;fill-opacity:1;stroke:none;stroke-width:12.60000038;stroke-linecap:butt;stroke-linejoin:miter;stroke-miterlimit:4;stroke-dasharray:none;stroke-dashoffset:0;stroke-opacity:0.87878789"
         transform="scale(-1,-1)" />
      <rect
         transform="scale(-1,-1)"
         style="opacity:1;fill:#f9f9f9;fill-opacity:1;stroke:none;stroke-width:12.60000038;stroke-linecap:butt;stroke-linejoin:miter;stroke-miterlimit:4;stroke-dasharray:none;stroke-dashoffset:0;stroke-opacity:0.87878789"
         id="rect7869"
         width="152.83186"
         height="39.979797"
         x="-2407.916"
         y="-1296.1974"
         ry="9.2457275"
         rx="0" />
    </g>
  </g>
</svg>
