<?xml version="1.0" encoding="UTF-8" standalone="no"?>
<!-- Created with Inkscape (http://www.inkscape.org/) -->

<svg
   xmlns:dc="http://purl.org/dc/elements/1.1/"
   xmlns:cc="http://creativecommons.org/ns#"
   xmlns:rdf="http://www.w3.org/1999/02/22-rdf-syntax-ns#"
   xmlns:svg="http://www.w3.org/2000/svg"
   xmlns="http://www.w3.org/2000/svg"
   xmlns:xlink="http://www.w3.org/1999/xlink"
   xmlns:sodipodi="http://sodipodi.sourceforge.net/DTD/sodipodi-0.dtd"
   xmlns:inkscape="http://www.inkscape.org/namespaces/inkscape"
   width="210mm"
   height="297mm"
   viewBox="0 0 744.09448819 1052.3622047"
   id="svg8844"
   version="1.1"
   inkscape:version="0.91 r13725"
   sodipodi:docname="GoogleKeep.svg">
  <defs
     id="defs8846">
    <linearGradient
       inkscape:collect="always"
       xlink:href="#linearGradient8734"
       id="linearGradient8740"
       x1="2199.8091"
       y1="1158.7817"
       x2="2489.0156"
       y2="1445.8672"
       gradientUnits="userSpaceOnUse"
       gradientTransform="matrix(1.4155767,0,0,1.4155767,-2890.2851,-1317.6179)" />
    <linearGradient
       inkscape:collect="always"
       id="linearGradient8734">
      <stop
         style="stop-color:#907c5d;stop-opacity:0.61616164"
         offset="0"
         id="stop8736" />
      <stop
         style="stop-color:#686259;stop-opacity:0"
         offset="1"
         id="stop8738" />
    </linearGradient>
  </defs>
  <sodipodi:namedview
     id="base"
     pagecolor="#ffffff"
     bordercolor="#666666"
     borderopacity="1.0"
     inkscape:pageopacity="0.0"
     inkscape:pageshadow="2"
     inkscape:zoom="0.49497475"
     inkscape:cx="-89.584309"
     inkscape:cy="343.47692"
     inkscape:document-units="px"
     inkscape:current-layer="layer1"
     showgrid="false"
     inkscape:window-width="1600"
     inkscape:window-height="876"
     inkscape:window-x="133"
     inkscape:window-y="1073"
     inkscape:window-maximized="1" />
  <metadata
     id="metadata8849">
    <rdf:RDF>
      <cc:Work
         rdf:about="">
        <dc:format>image/svg+xml</dc:format>
        <dc:type
           rdf:resource="http://purl.org/dc/dcmitype/StillImage" />
        <dc:title></dc:title>
      </cc:Work>
    </rdf:RDF>
  </metadata>
  <g
     inkscape:label="Layer 1"
     inkscape:groupmode="layer"
     id="layer1">
    <rect
       ry="34.80159"
       y="175.0787"
       x="3.0308142"
       height="463.61502"
       width="739.65247"
       id="rect8681"
       style="opacity:1;fill:#ffc264;fill-opacity:1;stroke:none;stroke-width:9.69999981;stroke-linecap:butt;stroke-linejoin:miter;stroke-miterlimit:4;stroke-dasharray:none;stroke-dashoffset:0;stroke-opacity:1" />
    <path
       inkscape:connector-curvature="0"
       style="opacity:1;fill:#966e33;fill-opacity:1;stroke:none;stroke-width:9.69999981;stroke-linecap:butt;stroke-linejoin:miter;stroke-miterlimit:4;stroke-dasharray:none;stroke-dashoffset:0;stroke-opacity:1"
       d="m 58.554675,184.28137 c -30.75949,0 -55.5225982,24.76042 -55.5225982,55.51991 l 0,628.60722 c 0,30.75949 24.7631082,55.52274 55.5225982,55.52274 l 493.820675,0 190.30659,-203.76561 0,-480.36435 c 0,-30.75949 -24.76041,-55.51991 -55.51991,-55.51991 l -628.607355,0 z"
       id="path8720" />
    <path
       inkscape:connector-curvature="0"
       style="opacity:1;fill:#ffa416;fill-opacity:1;stroke:none;stroke-width:9.69999981;stroke-linecap:butt;stroke-linejoin:miter;stroke-miterlimit:4;stroke-dasharray:none;stroke-dashoffset:0;stroke-opacity:1"
       d="m 58.554675,178.61907 c -30.75949,0 -55.5225982,24.76042 -55.5225982,55.51991 l 0,628.60722 c 0,30.75949 24.7631082,55.52274 55.5225982,55.52274 l 499.068215,0 0.6414,-0.45072 4.80249,-5.14251 -0.27646,-129.18794 c 0,-30.75949 24.76041,-55.52274 55.5199,-55.52274 l 117.24684,0.0255 6.64104,-7.11101 0.48384,-0.47832 0,-486.26164 c 0,-30.75949 -24.76041,-55.51991 -55.51991,-55.51991 l -628.607355,0 z"
       id="path8716" />
    <path
       style="fill:url(#linearGradient8740);fill-opacity:1;fill-rule:evenodd;stroke:none;stroke-width:1px;stroke-linecap:butt;stroke-linejoin:miter;stroke-opacity:1;opacity:0.504"
       d="m 397.88115,326.22889 -106.10186,20.0198 -65.06401,69.06754 -3.00258,116.11042 81.07772,96.09331 -10.00855,128.12356 180.4362,162.62542 82.40482,0 0.6414,-0.45072 4.80249,-5.14251 -0.27646,-129.18794 c 0,-30.75949 24.76041,-55.52274 55.5199,-55.52274 l 117.24684,0.0255 6.64104,-7.11101 0.48384,-0.47832 0,-165.09998 -249.70829,-195.03717 -32.03295,-6.00785 -63.05955,-28.02672 z"
       id="path8732"
       inkscape:connector-curvature="0" />
    <g
       id="g8697"
       transform="matrix(1.2578495,0,0,1.2578495,-2551.6012,-1141.6943)"
       style="fill:none">
      <path
         sodipodi:nodetypes="sccccccccccs"
         inkscape:connector-curvature="0"
         id="path8685"
         d="m 2324.9668,1166.7012 c -67.9509,-3e-4 -123.0363,55.0842 -123.0371,123.0351 0.059,47.9121 27.9264,91.4323 71.418,111.5332 l 0,100.1055 19.7988,0 0,19.2695 63.6406,0 0,-19.2695 19.7988,0 0,-100.1113 c 43.4897,-20.1001 71.3566,-63.6174 71.418,-111.5274 -8e-4,-67.9509 -55.0862,-123.0354 -123.0371,-123.0351 z"
         style="opacity:1;fill:none;fill-opacity:1;stroke:#ffffff;stroke-width:23;stroke-linecap:butt;stroke-linejoin:miter;stroke-miterlimit:4;stroke-dasharray:none;stroke-dashoffset:0;stroke-opacity:1" />
      <path
         inkscape:connector-curvature="0"
         id="path8692"
         d="m 2280,1450.3622 92,0"
         style="fill:none;fill-rule:evenodd;stroke:#ffffff;stroke-width:23;stroke-linecap:butt;stroke-linejoin:miter;stroke-miterlimit:4;stroke-dasharray:none;stroke-opacity:1" />
      <path
         style="fill:none;fill-rule:evenodd;stroke:#ffffff;stroke-width:23;stroke-linecap:butt;stroke-linejoin:miter;stroke-miterlimit:4;stroke-dasharray:none;stroke-opacity:1"
         d="m 2280,1498.3622 92,0"
         id="path8694"
         inkscape:connector-curvature="0" />
    </g>
    <path
       sodipodi:nodetypes="ccssc"
       style="opacity:1;fill:#e5d174;fill-opacity:1;stroke:none;stroke-width:9.69999981;stroke-linecap:butt;stroke-linejoin:miter;stroke-miterlimit:4;stroke-dasharray:none;stroke-dashoffset:0;stroke-opacity:1"
       d="m 552.37535,923.93124 190.30659,-203.53077 -129.35285,2.40266 c -31.2691,0.58081 -55.47404,25.23308 -56.44937,56.54182 z"
       id="rect8683"
       inkscape:connector-curvature="0" />
    <path
       sodipodi:nodetypes="ccssc"
       style="opacity:1;fill:#f1cd24;fill-opacity:1;stroke:none;stroke-width:9.69999981;stroke-linecap:butt;stroke-linejoin:miter;stroke-miterlimit:4;stroke-dasharray:none;stroke-dashoffset:0;stroke-opacity:1"
       d="M 552.37535,923.93124 742.68194,720.40062 615.47907,725.1336 c -30.73826,1.14364 -55.51991,24.76325 -55.51991,55.52274 z"
       id="rect8679"
       inkscape:connector-curvature="0" />
  </g>
</svg>
