<?xml version="1.0" encoding="UTF-8" standalone="no"?>
<!-- Created with Inkscape (http://www.inkscape.org/) -->

<svg
   xmlns:dc="http://purl.org/dc/elements/1.1/"
   xmlns:cc="http://creativecommons.org/ns#"
   xmlns:rdf="http://www.w3.org/1999/02/22-rdf-syntax-ns#"
   xmlns:svg="http://www.w3.org/2000/svg"
   xmlns="http://www.w3.org/2000/svg"
   xmlns:sodipodi="http://sodipodi.sourceforge.net/DTD/sodipodi-0.dtd"
   xmlns:inkscape="http://www.inkscape.org/namespaces/inkscape"
   width="210mm"
   height="297mm"
   viewBox="0 0 744.09448819 1052.3622047"
   id="svg6063"
   version="1.1"
   inkscape:version="0.91 r13725"
   sodipodi:docname="PaperBoyAFeedlyNewsReader.svg">
  <defs
     id="defs6065" />
  <sodipodi:namedview
     id="base"
     pagecolor="#ffffff"
     bordercolor="#666666"
     borderopacity="1.0"
     inkscape:pageopacity="0.0"
     inkscape:pageshadow="2"
     inkscape:zoom="0.35"
     inkscape:cx="-112.14286"
     inkscape:cy="520"
     inkscape:document-units="px"
     inkscape:current-layer="layer1"
     showgrid="false"
     inkscape:window-width="1600"
     inkscape:window-height="876"
     inkscape:window-x="133"
     inkscape:window-y="1073"
     inkscape:window-maximized="1" />
  <metadata
     id="metadata6068">
    <rdf:RDF>
      <cc:Work
         rdf:about="">
        <dc:format>image/svg+xml</dc:format>
        <dc:type
           rdf:resource="http://purl.org/dc/dcmitype/StillImage" />
        <dc:title></dc:title>
      </cc:Work>
    </rdf:RDF>
  </metadata>
  <g
     inkscape:label="Layer 1"
     inkscape:groupmode="layer"
     id="layer1">
    <g
       id="g4280"
       transform="matrix(1.6744872,0,0,1.6744872,417.94675,289.25837)">
      <path
         style="opacity:1;fill:#e2e2e2;fill-opacity:1;stroke:none;stroke-width:1.3493073;stroke-linecap:butt;stroke-linejoin:round;stroke-miterlimit:4;stroke-dasharray:none;stroke-dashoffset:0;stroke-opacity:1"
         d="m -215.68945,-66.13477 c -15.39448,0 -27.78711,21.061 -27.78711,47.2207 l 0,145.46485 431.05078,0 0,-145.46485 c 0,-26.1597 -12.39264,-47.2207 -27.78711,-47.2207 l -375.47656,0 z"
         id="path4276"
         inkscape:connector-curvature="0" />
      <path
         style="opacity:0.48600003;fill:#e3e3e3;fill-opacity:1;stroke:none;stroke-width:1.3493073;stroke-linecap:butt;stroke-linejoin:round;stroke-miterlimit:4;stroke-dasharray:none;stroke-dashoffset:0;stroke-opacity:1"
         d="m -215.68945,-69.13477 c -15.39448,0 -27.78711,21.061 -27.78711,47.2207 l 0,145.46485 431.05078,0 0,-145.46485 c 0,-26.1597 -12.39264,-47.2207 -27.78711,-47.2207 l -375.47656,0 z"
         id="path4278"
         inkscape:connector-curvature="0" />
      <path
         inkscape:connector-curvature="0"
         id="rect4136"
         d="m -215.68945,-66.13477 c -15.39448,0 -27.78711,21.061 -27.78711,47.2207 l 0,145.46485 431.05078,0 0,-145.46485 c 0,-26.1597 -12.39264,-47.2207 -27.78711,-47.2207 l -375.47656,0 z"
         style="opacity:1;fill:#cccccc;fill-opacity:1;stroke:none;stroke-width:1.3493073;stroke-linecap:butt;stroke-linejoin:round;stroke-miterlimit:4;stroke-dasharray:none;stroke-dashoffset:0;stroke-opacity:1" />
      <path
         inkscape:connector-curvature="0"
         style="opacity:1;fill:#cccccc;fill-opacity:1;stroke:none;stroke-width:1.3493073;stroke-linecap:butt;stroke-linejoin:round;stroke-miterlimit:4;stroke-dasharray:none;stroke-dashoffset:0;stroke-opacity:1"
         d="m 158.04496,326.73633 c 15.25163,0 27.52926,-21.061 27.52926,-47.2207 l 0,-145.46485 -427.05078,0 0,145.46485 c 0,26.1597 12.27764,47.2207 27.52926,47.2207 l 371.99226,0 z"
         id="path4142" />
      <path
         id="path4144"
         d="m 159.78711,319.23633 c 15.39448,0 27.78711,-21.061 27.78711,-47.2207 l 0,-145.46485 -431.05078,0 0,145.46485 c 0,26.1597 12.39264,47.2207 27.78711,47.2207 l 375.47656,0 z"
         style="opacity:1;fill:#ffffff;fill-opacity:1;stroke:none;stroke-width:0;stroke-linecap:butt;stroke-linejoin:round;stroke-miterlimit:4;stroke-dasharray:none;stroke-dashoffset:0;stroke-opacity:1"
         inkscape:connector-curvature="0" />
      <path
         inkscape:connector-curvature="0"
         id="rect4266"
         d="m -181.5,172.39356 c -6.094,0 -11,4.906 -11,11 l 0,79 c 0,6.094 4.906,11 11,11 l 79,0 c 6.094,0 11,-4.906 11,-11 l 0,-79 c 0,-6.094 -4.906,-11 -11,-11 l -79,0 z m 138.105469,19 c -1.812811,0 -3.271485,1.46062 -3.271485,3.27344 l 0,8.95507 c 0,1.81281 1.458674,3.27149 3.271485,3.27149 l 183.955081,0 c 1.81281,0 3.27343,-1.45868 3.27343,-3.27149 l 0,-8.95507 c 0,-1.81282 -1.46062,-3.27344 -3.27343,-3.27344 l -183.955081,0 z m 0,27.25 c -1.812811,0 -3.271485,1.46062 -3.271485,3.27344 l 0,8.95507 c 0,1.81281 1.458674,3.27149 3.271485,3.27149 l 183.955081,0 c 1.81281,0 3.27343,-1.45868 3.27343,-3.27149 l 0,-8.95507 c 0,-1.81282 -1.46062,-3.27344 -3.27343,-3.27344 l -183.955081,0 z m 0,27.25 c -1.812811,0 -3.271485,1.46062 -3.271485,3.27344 l 0,8.95507 c 0,1.81281 1.458674,3.27149 3.271485,3.27149 l 183.955081,0 c 1.81281,0 3.27343,-1.45868 3.27343,-3.27149 l 0,-8.95507 c 0,-1.81282 -1.46062,-3.27344 -3.27343,-3.27344 l -183.955081,0 z"
         style="opacity:1;fill:#008066;fill-opacity:1;stroke:none;stroke-width:0;stroke-linecap:butt;stroke-linejoin:round;stroke-miterlimit:4;stroke-dasharray:none;stroke-dashoffset:0;stroke-opacity:1" />
      <path
         inkscape:connector-curvature="0"
         id="rect4250"
         d="m -181.5,-20.291995 c -6.094,0 -11,4.906 -11,11.0000001 l 0,78.9999999 c 0,6.094 4.906,11 11,11 l 79,0 c 6.094,0 11,-4.906 11,-11 l 0,-78.9999999 c 0,-6.0940001 -4.906,-11.0000001 -11,-11.0000001 l -79,0 z m 138.105469,19.0000001 c -1.812811,0 -3.271485,1.4606264 -3.271485,3.2734375 l 0,8.9550784 c 0,1.812811 1.458674,3.271484 3.271485,3.271484 l 183.955081,0 c 1.81281,0 3.27343,-1.458673 3.27343,-3.271484 l 0,-8.9550784 c 0,-1.8128111 -1.46062,-3.2734375 -3.27343,-3.2734375 l -183.955081,0 z m 0,27.2499999 c -1.812811,0 -3.271485,1.460626 -3.271485,3.273438 l 0,8.955078 c 0,1.812811 1.458674,3.271484 3.271485,3.271484 l 183.955081,0 c 1.81281,0 3.27343,-1.458673 3.27343,-3.271484 l 0,-8.955078 c 0,-1.812812 -1.46062,-3.273438 -3.27343,-3.273438 l -183.955081,0 z m 0,27.25 c -1.812811,0 -3.271485,1.460626 -3.271485,3.273438 l 0,8.955078 c 0,1.812811 1.458674,3.271484 3.271485,3.271484 l 183.955081,0 c 1.81281,0 3.27343,-1.458673 3.27343,-3.271484 l 0,-8.955078 c 0,-1.812812 -1.46062,-3.273438 -3.27343,-3.273438 l -183.955081,0 z"
         style="opacity:1;fill:#008066;fill-opacity:1;stroke:none;stroke-width:0;stroke-linecap:butt;stroke-linejoin:round;stroke-miterlimit:4;stroke-dasharray:none;stroke-dashoffset:0;stroke-opacity:1" />
    </g>
  </g>
</svg>
