<?xml version="1.0" encoding="UTF-8" standalone="no"?>
<!-- Created with Inkscape (http://www.inkscape.org/) -->

<svg
   xmlns:dc="http://purl.org/dc/elements/1.1/"
   xmlns:cc="http://creativecommons.org/ns#"
   xmlns:rdf="http://www.w3.org/1999/02/22-rdf-syntax-ns#"
   xmlns:svg="http://www.w3.org/2000/svg"
   xmlns="http://www.w3.org/2000/svg"
   xmlns:sodipodi="http://sodipodi.sourceforge.net/DTD/sodipodi-0.dtd"
   xmlns:inkscape="http://www.inkscape.org/namespaces/inkscape"
   width="210mm"
   height="297mm"
   viewBox="0 0 744.09448819 1052.3622047"
   id="svg2"
   version="1.1"
   inkscape:version="0.91 r13725"
   sodipodi:docname="PocketCasts.svg">
  <defs
     id="defs4" />
  <sodipodi:namedview
     id="base"
     pagecolor="#ffffff"
     bordercolor="#666666"
     borderopacity="1.0"
     inkscape:pageopacity="0.0"
     inkscape:pageshadow="2"
     inkscape:zoom="1"
     inkscape:cx="174.50895"
     inkscape:cy="444.56112"
     inkscape:document-units="px"
     inkscape:current-layer="layer1"
     showgrid="false"
     showborder="false"
     inkscape:window-width="1600"
     inkscape:window-height="876"
     inkscape:window-x="133"
     inkscape:window-y="1073"
     inkscape:window-maximized="1" />
  <metadata
     id="metadata7">
    <rdf:RDF>
      <cc:Work
         rdf:about="">
        <dc:format>image/svg+xml</dc:format>
        <dc:type
           rdf:resource="http://purl.org/dc/dcmitype/StillImage" />
        <dc:title />
      </cc:Work>
    </rdf:RDF>
  </metadata>
  <g
     inkscape:label="Layer 1"
     inkscape:groupmode="layer"
     id="layer1">
    <g
       id="g3865"
       transform="translate(503,0)">
      <circle
         style="opacity:1;fill:#ff5a5a;fill-opacity:1;stroke:none;stroke-width:4.5;stroke-linecap:butt;stroke-linejoin:round;stroke-miterlimit:4;stroke-dasharray:none;stroke-dashoffset:0;stroke-opacity:1"
         id="circle4152"
         cx="-118.5"
         cy="533.86218"
         r="335.5" />
      <circle
         r="335.5"
         cy="541.86218"
         cx="-118.5"
         id="path4136"
         style="opacity:1;fill:#ff0000;fill-opacity:1;stroke:none;stroke-width:4.5;stroke-linecap:butt;stroke-linejoin:round;stroke-miterlimit:4;stroke-dasharray:none;stroke-dashoffset:0;stroke-opacity:1" />
      <path
         style="opacity:1;fill:#ffffff;fill-opacity:1;stroke:none;stroke-width:4.5;stroke-linecap:butt;stroke-linejoin:round;stroke-miterlimit:4;stroke-dasharray:none;stroke-dashoffset:0;stroke-opacity:1"
         id="path4148"
         sodipodi:type="arc"
         sodipodi:cx="-118.5"
         sodipodi:cy="541.86218"
         sodipodi:rx="237.5"
         sodipodi:ry="237.5"
         sodipodi:start="1.5707963"
         sodipodi:end="0"
         d="M -118.49999,779.36218 A 237.5,237.5 0 0 1 -337.92139,632.7495 237.5,237.5 0 0 1 -286.43786,373.92432 237.5,237.5 0 0 1 -27.612686,322.44079 237.5,237.5 0 0 1 119,541.86218 l -237.5,0 z" />
      <path
         d="M -116.9113,719.35507 A 177.5,177.5 0 0 1 -282.33294,610.16312 177.5,177.5 0 0 1 -243.46059,415.80227 177.5,177.5 0 0 1 -48.766717,378.63376 177.5,177.5 0 0 1 58.972167,545.00543 L -118.5,541.86218 Z"
         sodipodi:end="0.017709352"
         sodipodi:start="1.5618458"
         sodipodi:ry="177.5"
         sodipodi:rx="177.5"
         sodipodi:cy="541.86218"
         sodipodi:cx="-118.5"
         sodipodi:type="arc"
         id="path4150"
         style="opacity:1;fill:#ff0000;fill-opacity:1;stroke:none;stroke-width:4.5;stroke-linecap:butt;stroke-linejoin:round;stroke-miterlimit:4;stroke-dasharray:none;stroke-dashoffset:0;stroke-opacity:1" />
      <path
         d="M -118.5,683.36218 A 141.5,141.5 0 0 1 -249.22895,596.01189 141.5,141.5 0 0 1 -218.55561,441.80657 141.5,141.5 0 0 1 -64.350295,411.13323 141.5,141.5 0 0 1 23,541.86218 l -141.5,0 z"
         sodipodi:end="0"
         sodipodi:start="1.5707963"
         sodipodi:ry="141.5"
         sodipodi:rx="141.5"
         sodipodi:cy="541.86218"
         sodipodi:cx="-118.5"
         sodipodi:type="arc"
         id="path4140"
         style="opacity:1;fill:#ffffff;fill-opacity:1;stroke:none;stroke-width:51.59999847;stroke-linecap:butt;stroke-linejoin:miter;stroke-miterlimit:4;stroke-dasharray:none;stroke-dashoffset:0;stroke-opacity:1" />
      <path
         sodipodi:open="true"
         style="opacity:1;fill:#ff0000;fill-opacity:1;stroke:none;stroke-width:4.5;stroke-linecap:butt;stroke-linejoin:round;stroke-miterlimit:4;stroke-dasharray:none;stroke-dashoffset:0;stroke-opacity:1"
         id="path4146"
         sodipodi:type="arc"
         sodipodi:cx="-118.5"
         sodipodi:cy="541.86218"
         sodipodi:rx="90.5"
         sodipodi:ry="90.5"
         sodipodi:start="1.5435628"
         sodipodi:end="0.043455586"
         d="m -116.03567,632.32862 a 90.5,90.5 0 0 1 -85.74048,-55.03576 90.5,90.5 0 0 1 19.80414,-99.94078 90.5,90.5 0 0 1 100.248881,-18.18035 90.5,90.5 0 0 1 53.637693,86.62195" />
    </g>
  </g>
</svg>
