<?xml version="1.0" encoding="UTF-8" standalone="no"?>
<!-- Created with Inkscape (http://www.inkscape.org/) -->

<svg
   xmlns:dc="http://purl.org/dc/elements/1.1/"
   xmlns:cc="http://creativecommons.org/ns#"
   xmlns:rdf="http://www.w3.org/1999/02/22-rdf-syntax-ns#"
   xmlns:svg="http://www.w3.org/2000/svg"
   xmlns="http://www.w3.org/2000/svg"
   xmlns:xlink="http://www.w3.org/1999/xlink"
   xmlns:sodipodi="http://sodipodi.sourceforge.net/DTD/sodipodi-0.dtd"
   xmlns:inkscape="http://www.inkscape.org/namespaces/inkscape"
   width="210mm"
   height="297mm"
   viewBox="0 0 744.09448819 1052.3622047"
   id="svg12305"
   version="1.1"
   inkscape:version="0.91 r13725"
   sodipodi:docname="Snapseed.svg">
  <defs
     id="defs12307">
    <linearGradient
       inkscape:collect="always"
       xlink:href="#linearGradient4339"
       id="linearGradient4345"
       x1="17.463493"
       y1="569.7887"
       x2="359.55484"
       y2="911.88007"
       gradientUnits="userSpaceOnUse" />
    <linearGradient
       inkscape:collect="always"
       id="linearGradient4339">
      <stop
         style="stop-color:#000000;stop-opacity:1;"
         offset="0"
         id="stop4341" />
      <stop
         style="stop-color:#000000;stop-opacity:0"
         offset="1"
         id="stop4343" />
    </linearGradient>
    <filter
       inkscape:collect="always"
       style="color-interpolation-filters:sRGB"
       id="filter4322"
       x="-0.030103805"
       width="1.0602076"
       y="-0.015427141"
       height="1.0308543">
      <feGaussianBlur
         inkscape:collect="always"
         stdDeviation="3.9134946"
         id="feGaussianBlur4324" />
    </filter>
  </defs>
  <sodipodi:namedview
     id="base"
     pagecolor="#ffffff"
     bordercolor="#666666"
     borderopacity="1.0"
     inkscape:pageopacity="0.0"
     inkscape:pageshadow="2"
     inkscape:zoom="0.49497475"
     inkscape:cx="95.089785"
     inkscape:cy="414.66817"
     inkscape:document-units="px"
     inkscape:current-layer="layer1"
     showgrid="false"
     inkscape:window-width="1600"
     inkscape:window-height="876"
     inkscape:window-x="133"
     inkscape:window-y="1073"
     inkscape:window-maximized="1" />
  <metadata
     id="metadata12310">
    <rdf:RDF>
      <cc:Work
         rdf:about="">
        <dc:format>image/svg+xml</dc:format>
        <dc:type
           rdf:resource="http://purl.org/dc/dcmitype/StillImage" />
        <dc:title></dc:title>
      </cc:Work>
    </rdf:RDF>
  </metadata>
  <g
     inkscape:label="Layer 1"
     inkscape:groupmode="layer"
     id="layer1">
    <g
       id="g4436"
       transform="matrix(1.455967,0,0,1.3911311,261.59432,-220.41077)">
      <g
         transform="matrix(1,0,0,0.98335128,0,14.179238)"
         id="g4332">
        <rect
           style="opacity:1;fill:#999999;fill-opacity:1;stroke:none;stroke-width:0.69999999;stroke-linecap:butt;stroke-linejoin:round;stroke-miterlimit:4;stroke-dasharray:none;stroke-dashoffset:0;stroke-opacity:1"
           id="rect4330"
           width="370.36392"
           height="350.2236"
           x="-45.809395"
           y="501.44791"
           ry="55.343067" />
        <rect
           ry="55.343067"
           y="491.28339"
           x="-45.809395"
           height="350.2236"
           width="370.36392"
           id="rect4328"
           style="opacity:1;fill:#e6e6e6;fill-opacity:1;stroke:none;stroke-width:0.69999999;stroke-linecap:butt;stroke-linejoin:round;stroke-miterlimit:4;stroke-dasharray:none;stroke-dashoffset:0;stroke-opacity:1" />
        <rect
           style="opacity:1;fill:#cccccc;fill-opacity:1;stroke:none;stroke-width:0.69999999;stroke-linecap:butt;stroke-linejoin:round;stroke-miterlimit:4;stroke-dasharray:none;stroke-dashoffset:0;stroke-opacity:1"
           id="rect4326"
           width="370.36392"
           height="350.2236"
           x="-45.809395"
           y="497.38211"
           ry="55.343067" />
      </g>
      <path
         id="path4337"
         d="m 97.897653,472.36133 -145.524606,148.03125 0.480469,0.48437 0,1.42774 -1.324219,-1.33399 L -68,634.36133 -83.113281,783.74609 c 18.42757,21.22626 39.147645,40.31253 61.77539,56.9043 0.242409,-0.18395 0.484597,-0.36819 0.726563,-0.55273 8.38205,5.01458 18.2380905,7.90039 28.8066405,7.90039 l 259.6777375,0 c 30.66005,0 55.34375,-24.27227 55.34375,-54.42188 l 0,-3.99805 0,-103.25 z"
         style="opacity:0.14100001;fill:url(#linearGradient4345);fill-opacity:1;fill-rule:evenodd;stroke:none;stroke-width:1px;stroke-linecap:butt;stroke-linejoin:miter;stroke-opacity:1"
         inkscape:connector-curvature="0"
         sodipodi:nodetypes="cccccccccsssccc" />
    </g>
    <g
       id="g4288"
       transform="matrix(1.3911311,0,0,1.3911311,261.77012,-214.84625)"
       style="opacity:0.15800003;fill:#000000;fill-opacity:1;filter:url(#filter4322)">
      <g
         id="g4290"
         style="fill:#000000;fill-opacity:1">
        <path
           id="path4292"
           d="m -20,233.01562 a 376,376 0 0 0 -91.08203,94.5586 L -20,418.6543 -20,233.01562 Z"
           style="opacity:1;fill:#000000;fill-opacity:1;stroke:none;stroke-width:0.69999999;stroke-linecap:butt;stroke-linejoin:round;stroke-miterlimit:4;stroke-dasharray:none;stroke-dashoffset:0;stroke-opacity:1"
           inkscape:connector-curvature="0" />
        <path
           id="path4294"
           d="m -111.65234,328.41797 a 376,376 0 0 0 -61.61524,167.96875 L -20,649.6543 l 0,-230.29297 -0.353516,0.35351 -91.298824,-91.29687 z"
           style="opacity:1;fill:#000000;fill-opacity:1;stroke:none;stroke-width:0.69999999;stroke-linecap:butt;stroke-linejoin:round;stroke-miterlimit:4;stroke-dasharray:none;stroke-dashoffset:0;stroke-opacity:1"
           inkscape:connector-curvature="0" />
        <path
           id="path4296"
           d="M -173.39062,497.67773 A 376,376 0 0 0 -176,537.36133 376,376 0 0 0 -20,841.83789 l 0,-191.47656 -0.353516,0.35351 -153.037104,-153.03711 z"
           style="opacity:1;fill:#000000;fill-opacity:1;stroke:none;stroke-width:0.69999999;stroke-linecap:butt;stroke-linejoin:round;stroke-miterlimit:4;stroke-dasharray:none;stroke-dashoffset:0;stroke-opacity:1"
           inkscape:connector-curvature="0" />
      </g>
      <g
         id="g4298"
         style="fill:#000000;fill-opacity:1">
        <path
           style="opacity:1;fill:#000000;fill-opacity:1;stroke:none;stroke-width:0.69999999;stroke-linecap:butt;stroke-linejoin:round;stroke-miterlimit:4;stroke-dasharray:none;stroke-dashoffset:0;stroke-opacity:1"
           d="m -20,233.01562 a 376,376 0 0 1 91.08203,94.5586 L -20,418.6543 -20,233.01562 Z"
           id="path4300"
           inkscape:connector-curvature="0" />
        <path
           style="opacity:1;fill:#000000;fill-opacity:1;stroke:none;stroke-width:0.69999999;stroke-linecap:butt;stroke-linejoin:round;stroke-miterlimit:4;stroke-dasharray:none;stroke-dashoffset:0;stroke-opacity:1"
           d="m 71.65234,328.41797 a 376,376 0 0 1 61.61524,167.96875 L -20,649.6543 l 0,-230.29297 0.353516,0.35351 91.298824,-91.29687 z"
           id="path4302"
           inkscape:connector-curvature="0" />
        <path
           style="opacity:1;fill:#000000;fill-opacity:1;stroke:none;stroke-width:0.69999999;stroke-linecap:butt;stroke-linejoin:round;stroke-miterlimit:4;stroke-dasharray:none;stroke-dashoffset:0;stroke-opacity:1"
           d="M 133.39062,497.67773 A 376,376 0 0 1 136,537.36133 376,376 0 0 1 -20,841.83789 l 0,-191.47656 0.353516,0.35351 153.037104,-153.03711 z"
           id="path4304"
           inkscape:connector-curvature="0" />
      </g>
    </g>
    <path
       id="path4274"
       d="M 228.38298,95.397716 A 523.06529,523.06529 0 0 0 101.67593,226.94113 l 126.70705,126.70433 0,-258.247744 z"
       style="opacity:1;fill:#01a74f;fill-opacity:1;stroke:none;stroke-width:0.69999999;stroke-linecap:butt;stroke-linejoin:round;stroke-miterlimit:4;stroke-dasharray:none;stroke-dashoffset:0;stroke-opacity:1"
       inkscape:connector-curvature="0" />
    <path
       id="path4276"
       d="M 100.88256,228.11489 A 523.06529,523.06529 0 0 0 15.167681,461.78144 l 213.215299,213.2153 0,-320.36771 -0.49179,0.49178 -127.00863,-127.00592 z"
       style="opacity:1;fill:#05933a;fill-opacity:1;stroke:none;stroke-width:0.69999999;stroke-linecap:butt;stroke-linejoin:round;stroke-miterlimit:4;stroke-dasharray:none;stroke-dashoffset:0;stroke-opacity:1"
       inkscape:connector-curvature="0" />
    <path
       id="path4278"
       d="m 14.996516,463.57741 a 523.06529,523.06529 0 0 0 -3.62999,55.20509 523.06529,523.06529 0 0 0 217.016454,423.56681 l 0,-266.369 -0.49179,0.49178 L 14.996516,463.57741 Z"
       style="opacity:1;fill:#156932;fill-opacity:1;stroke:none;stroke-width:0.69999999;stroke-linecap:butt;stroke-linejoin:round;stroke-miterlimit:4;stroke-dasharray:none;stroke-dashoffset:0;stroke-opacity:1"
       inkscape:connector-curvature="0" />
    <path
       style="opacity:1;fill:#7dfd7d;fill-opacity:1;stroke:none;stroke-width:0.69999999;stroke-linecap:butt;stroke-linejoin:round;stroke-miterlimit:4;stroke-dasharray:none;stroke-dashoffset:0;stroke-opacity:1"
       d="M 228.38298,95.397716 A 523.06529,523.06529 0 0 1 355.09002,226.94113 l -126.70704,126.70433 0,-258.247744 z"
       id="path4282"
       inkscape:connector-curvature="0" />
    <path
       style="opacity:1;fill:#92fc8f;fill-opacity:1;stroke:none;stroke-width:0.69999999;stroke-linecap:butt;stroke-linejoin:round;stroke-miterlimit:4;stroke-dasharray:none;stroke-dashoffset:0;stroke-opacity:1"
       d="m 355.8834,228.11489 a 523.06529,523.06529 0 0 1 85.71488,233.66655 l -213.2153,213.2153 0,-320.36771 0.49179,0.49178 127.00863,-127.00592 z"
       id="path4284"
       inkscape:connector-curvature="0" />
    <path
       style="opacity:1;fill:#77e478;fill-opacity:1;stroke:none;stroke-width:0.69999999;stroke-linecap:butt;stroke-linejoin:round;stroke-miterlimit:4;stroke-dasharray:none;stroke-dashoffset:0;stroke-opacity:1"
       d="m 441.76944,463.57741 a 523.06529,523.06529 0 0 1 3.62999,55.20509 523.06529,523.06529 0 0 1 -217.01645,423.56681 l 0,-266.369 0.49179,0.49178 212.89467,-212.89468 z"
       id="path4286"
       inkscape:connector-curvature="0" />
    <path
       style="opacity:1;fill:#01e56d;fill-opacity:1;stroke:none;stroke-width:0.69999999;stroke-linecap:butt;stroke-linejoin:round;stroke-miterlimit:4;stroke-dasharray:none;stroke-dashoffset:0;stroke-opacity:1"
       d="M 228.38298,100.28643 A 523.06529,527.33658 0 0 0 101.67593,232.904 l 126.70705,127.73899 0,-260.35656 z"
       id="path4160"
       inkscape:connector-curvature="0" />
    <path
       style="opacity:1;fill:#06be4b;fill-opacity:1;stroke:none;stroke-width:0.69999999;stroke-linecap:butt;stroke-linejoin:round;stroke-miterlimit:4;stroke-dasharray:none;stroke-dashoffset:0;stroke-opacity:1"
       d="M 100.88256,234.08735 A 523.06529,527.33658 0 0 0 15.167681,469.662 l 213.215299,214.95638 0,-322.98379 -0.49179,0.49579 -127.00863,-128.04303 z"
       id="path4158"
       inkscape:connector-curvature="0" />
    <path
       style="opacity:1;fill:#1f9d4a;fill-opacity:1;stroke:none;stroke-width:0.69999999;stroke-linecap:butt;stroke-linejoin:round;stroke-miterlimit:4;stroke-dasharray:none;stroke-dashoffset:0;stroke-opacity:1"
       d="m 14.996516,471.47263 a 523.06529,527.33658 0 0 0 -3.62999,55.65589 523.06529,527.33658 0 0 0 217.016454,427.0256 l 0,-268.54413 -0.49179,0.49579 L 14.996516,471.47263 Z"
       id="path4136"
       inkscape:connector-curvature="0" />
    <path
       inkscape:connector-curvature="0"
       id="path4246"
       d="m 228.38298,100.28643 c 49.62341,36.37214 92.51279,81.26219 126.70704,132.61757 L 228.38298,360.64299 Z"
       style="opacity:1;fill:#2efe2e;fill-opacity:1;stroke:none;stroke-width:0.69999999;stroke-linecap:butt;stroke-linejoin:round;stroke-miterlimit:4;stroke-dasharray:none;stroke-dashoffset:0;stroke-opacity:1"
       sodipodi:nodetypes="cccc" />
    <path
       inkscape:connector-curvature="0"
       id="path4248"
       d="m 355.8834,234.08735 c 46.95642,70.42807 76.36041,151.24059 85.71488,235.57465 l -213.2153,214.95638 0,-322.98379 0.49179,0.49579 z"
       style="opacity:1;fill:#0ded07;fill-opacity:1;stroke:none;stroke-width:0.69999999;stroke-linecap:butt;stroke-linejoin:round;stroke-miterlimit:4;stroke-dasharray:none;stroke-dashoffset:0;stroke-opacity:1"
       sodipodi:nodetypes="cccccc" />
    <path
       inkscape:connector-curvature="0"
       id="path4250"
       d="m 441.76944,471.47263 a 523.06529,527.33658 0 0 1 3.62999,55.65589 523.06529,527.33658 0 0 1 -217.01645,427.0256 l 0,-268.54413 0.49179,0.49579 212.89467,-214.63315 z"
       style="opacity:1;fill:#28cc2a;fill-opacity:1;stroke:none;stroke-width:0.69999999;stroke-linecap:butt;stroke-linejoin:round;stroke-miterlimit:4;stroke-dasharray:none;stroke-dashoffset:0;stroke-opacity:1" />
  </g>
</svg>
