<?xml version="1.0" encoding="UTF-8" standalone="no"?>
<!-- Created with Inkscape (http://www.inkscape.org/) -->

<svg
   xmlns:dc="http://purl.org/dc/elements/1.1/"
   xmlns:cc="http://creativecommons.org/ns#"
   xmlns:rdf="http://www.w3.org/1999/02/22-rdf-syntax-ns#"
   xmlns:svg="http://www.w3.org/2000/svg"
   xmlns="http://www.w3.org/2000/svg"
   xmlns:sodipodi="http://sodipodi.sourceforge.net/DTD/sodipodi-0.dtd"
   xmlns:inkscape="http://www.inkscape.org/namespaces/inkscape"
   width="210mm"
   height="297mm"
   viewBox="0 0 744.09448819 1052.3622047"
   id="svg5413"
   version="1.1"
   inkscape:version="0.91 r13725"
   sodipodi:docname="YarnForHackerNews.svg">
  <defs
     id="defs5415" />
  <sodipodi:namedview
     id="base"
     pagecolor="#ffffff"
     bordercolor="#666666"
     borderopacity="1.0"
     inkscape:pageopacity="0.0"
     inkscape:pageshadow="2"
     inkscape:zoom="0.35"
     inkscape:cx="385"
     inkscape:cy="311.42857"
     inkscape:document-units="px"
     inkscape:current-layer="layer1"
     showgrid="false"
     inkscape:window-width="800"
     inkscape:window-height="848"
     inkscape:window-x="133"
     inkscape:window-y="1073"
     inkscape:window-maximized="0" />
  <metadata
     id="metadata5418">
    <rdf:RDF>
      <cc:Work
         rdf:about="">
        <dc:format>image/svg+xml</dc:format>
        <dc:type
           rdf:resource="http://purl.org/dc/dcmitype/StillImage" />
        <dc:title></dc:title>
      </cc:Work>
    </rdf:RDF>
  </metadata>
  <g
     inkscape:label="Layer 1"
     inkscape:groupmode="layer"
     id="layer1">
    <path
       style="opacity:1;fill:#aa4400;fill-opacity:1;stroke:none;stroke-width:0;stroke-linecap:butt;stroke-linejoin:round;stroke-miterlimit:4;stroke-dasharray:none;stroke-dashoffset:0;stroke-opacity:1"
       d="m 409.6483,366.28325 c -0.29429,-3.97139 -1.94713,-24.21629 -2.2065,-27.54664 -1.52579,-17.42767 -5.45898,-52.45755 -7.43648,-69.41549 -2.10838,-16.58589 -7.33754,-50.70114 -9.86907,-66.77861 -2.2371,-13.22777 -4.64209,-26.23391 -7.15928,-39.07879 -6.80409,-0.53622 -13.62212,-0.87798 -20.44571,-1.02485 -14.56508,0.14865 -29.10756,1.18521 -43.54651,3.1037 3.49314,13.38852 6.7966,27.08203 9.88731,41.0847 0.2857,-0.0224 0.57139,-0.0434 0.85708,-0.0657 8.87291,44.57244 16.66228,93.90967 21.39032,135.30784 0.15124,-0.01 0.30097,-0.0186 0.45223,-0.0292 3.70479,27.30062 5.0199,53.7404 6.26574,81.24305 0.0934,-0.007 0.18375,-0.007 0.27718,-0.0149 0.48532,8.14363 0.9218,16.32678 1.28743,24.57059 18.19144,-2.8033 36.26683,-5.28836 54.21066,-7.47293 -0.22707,-6.59706 -0.49749,-13.15869 -0.7914,-19.70169 M 403.96244,165.0831 c 2.2596,11.99181 4.42139,24.11026 6.44447,36.40547 0,0 7.5759,50.33193 9.63201,66.95003 68.74494,-2.71465 135.27225,-2.04031 198.47945,1.66308 C 561.11311,211.59036 485.386,174.52425 403.96244,165.08302 Z M 270.79547,349.60864 c 16.47444,-1.98347 33.17009,-3.75631 50.08578,-5.28468 0.40335,-0.0364 0.80404,-0.0665 1.20719,-0.10219 -17.09625,1.54635 -33.95337,3.35537 -50.57085,5.38315 m -0.74271,-1.73302 c 0.96988,6.77585 5.5351,36.53719 6.38809,43.44402 8.42555,-1.60884 15.96683,-6.57313 24.47248,-8.09191 11.08797,-1.97987 22.13711,-3.83146 33.16681,-5.62385 -0.50864,-5.47503 -3.03155,-28.74175 -3.59604,-34.15887 -2.03016,-17.37012 -7.23068,-52.17925 -9.82532,-68.87934 -2.8103,-16.56436 -9.79167,-50.43706 -13.14053,-66.23884 -3.11856,-13.63339 -6.43892,-26.9437 -9.94569,-39.92858 -23.82254,4.3565 -47.1422,11.11632 -69.60146,20.17583 11.38535,29.58501 20.10367,58.0242 28.4584,92.33391 56.13841,-3.01554 47.75007,-8.29399 -0.65504,-3.64791 3.58897,16.50085 11.47792,54.83165 14.29889,72.35222 m 64.00679,27.99158 c -10.11731,1.6539 -20.25167,3.35956 -30.42054,5.17525 -9.25743,1.65301 -18.44652,3.38023 -27.60498,5.14242 0.20204,1.91254 3.7458,41.35882 3.93887,43.28028 0.83787,9.89562 1.56894,19.89091 2.17003,30.00112 11.68793,-2.33597 23.45016,-4.59608 35.33322,-6.71795 7.22188,-1.28951 14.42463,-2.52093 21.61644,-3.71276 -0.39383,-8.77432 -0.86223,-17.48272 -1.39685,-26.13522 -0.23678,-3.22183 -3.38053,-43.82897 -3.63619,-47.03314 z m -163.00397,-85.2877 c 21.22621,-3.28103 42.81354,-6.26731 64.71067,-8.96459 -4.20876,-16.80444 -14.80331,-50.33178 -19.80381,-65.65166 -1.9887,-5.52737 -4.01405,-10.9718 -6.10526,-16.2661 -0.53918,-1.36502 -1.09801,-2.68085 -1.64485,-4.02643 -22.22418,10.53501 -43.30495,23.32963 -62.90903,38.18161 8.60534,16.05422 19.59776,41.97572 25.75228,56.72717 m -1.01471,-3.52275 c 12.94425,37.59134 32.41999,114.40953 32.41999,114.40953 l 53.36452,-11.4118 c 0,0 -4.90659,-31.46761 -6.13809,-39.59305 0.11203,-0.0149 0.22313,-0.0327 0.33553,-0.0474 -2.94215,-17.62431 -10.52192,-52.33785 -14.25657,-68.79912 -21.04246,2.60409 -45.33461,2.28613 -65.72538,5.44185 m 85.78451,102.99773 -54.25372,8.33881 c 0,0 8.52703,54.36951 10.36802,76.6243 16.6468,-4.06649 33.55721,-7.90442 50.67662,-11.53216 -0.62929,-10.49106 -1.40529,-20.84314 -2.29768,-31.08435 z M 124.61192,253.38324 c -19.16735,17.02517 -36.452673,36.05774 -51.55919,56.77094 24.883416,-5.15859 50.34805,-9.94839 76.42886,-14.2748 -7.61733,-16.39016 -15.95346,-30.60696 -24.86967,-42.49614 z m 297.54597,32.90059 c 1.93381,17.04138 3.65333,34.30812 5.13878,51.79627 86.83314,-8.28024 171.5543,10.95767 250.5675,13.07494 -11.88176,-22.0203 -26.0368,-42.73579 -42.23354,-61.80762 -73.53485,-4.47284 -145.55258,-5.63835 -213.47274,-3.06359 z m -265.28723,26.80991 c -33.90364,5.62939 -66.783916,12.00757 -98.519448,19.04158 -13.315861,21.46901 -24.324465,44.28573 -32.842234,68.0697 45.374776,-13.99859 95.048922,-26.13626 148.134742,-35.89488 -4.62554,-17.40737 -9.86541,-33.68591 -15.68624,-48.55765 -0.35477,-0.90685 -0.72811,-1.76239 -1.08682,-2.65875 z m 307.52807,42.35029 c -11.77644,0.0329 -23.67924,0.22077 -35.67604,0.52883 0.21175,2.80822 1.9111,27.92593 1.9111,27.92593 0.37121,6.09262 2.10073,36.80664 2.10073,36.80664 0.25358,5.88345 0.27393,11.2632 0.47411,17.18883 90.45934,-4.093 188.89792,-12.47155 276.30152,-5.63843 -5.21104,-20.20585 -12.17673,-39.918 -20.81772,-58.91179 -71.651,-6.06901 -150.85149,-16.43379 -224.2937,-17.90001 z M 177.3747,382.22476 c -885.37035,1217.48954 -442.68515,608.74478 0,0 z m 0,0 c -57.94037,10.85488 -111.5095,24.57776 -159.211,40.41728 -9.2086413,31.9251 -13.9331243,64.97564 -14.0377363,98.20214 0.02918,7.50856 0.294372,15.0144 0.795075,22.50632 C 62.563332,519.8365 125.7566,498.99152 193.19951,481.64137 c -0.63002,-7.62594 -4.07875,-32.53761 -6.76173,-51.86922 l -0.33189,-2.39615 c -1.20049,-8.64916 -2.24852,-16.21106 -2.67334,-19.57041 -1.05093,-5.57698 -4.60675,-19.2236 -6.05785,-25.58083 z m 422.98105,65.74649 c -53.26853,0.063 -109.12687,3.16686 -166.59275,9.50801 0.11347,4.69787 0.2108,9.40771 0.29176,14.12891 -0.0821,-4.67506 -0.18094,-9.33924 -0.2954,-13.99033 -17.87511,2.1889 -75.02659,9.97944 -93.16183,12.80136 -5.97001,1.00046 -11.95558,2.03378 -17.94744,3.1037 -13.04062,2.32852 -45.46482,8.90263 -58.25896,11.49569 -16.97021,3.65097 -53.19282,13.11699 -69.75465,17.23262 -0.0187,-0.20985 -0.0168,-0.42492 -0.0292,-0.63462 -67.4975,17.67103 -130.434924,38.91495 -187.3776423,62.74492 2.745904,22.44475 7.6097373,44.57928 14.5264313,66.10754 50.529332,-26.43166 109.348061,-50.01825 174.251701,-69.33159 16.29779,-4.54879 52.53757,-14.48241 69.51395,-18.47262 16.48826,-3.60612 52.83306,-11.3839 69.86042,-14.42433 2.02474,-0.36156 4.04359,-0.69521 6.06514,-1.04672 7.5e-4,-0.18598 0,-0.36833 0,-0.55436 18.5976,-2.92025 75.3086,-10.19013 92.90288,-12.24335 45.33389,-4.58781 89.36464,-6.60387 131.33978,-6.16727 55.95149,0.58192 108.23411,5.51669 155.15546,14.40245 0.0317,-0.59562 0.0616,-1.19132 0.0915,-1.78708 -0.028,-21.00351 -1.90279,-41.96393 -5.60196,-62.63914 -32.04797,-10.12721 -65.91951,-9.95043 -97.65505,-10.14992 -5.74157,-0.0649 -11.51607,-0.0908 -17.32014,-0.0838 z m -51.08508,79.95196 c -36.88576,0.0736 -75.43014,2.06437 -115.06272,6.10527 -9.1e-4,0.0724 0,0.1466 0,0.21883 -17.75636,2.09574 -74.84628,9.85693 -92.91747,12.77583 -0.14005,11.20485 -0.32358,19.54996 -0.68565,30.88373 0.33071,-10.35474 0.54466,-20.64146 0.68565,-30.88373 -0.49373,0.0876 -0.987,0.16712 -1.48071,0.2553 -18.58003,3.31766 -56.50824,12.30187 -74.52508,16.34636 0,-0.23956 0.0187,-0.47898 0.0187,-0.71849 -16.90149,4.08112 -53.29899,15.80068 -69.80572,20.57336 0.0187,-0.50144 0.0451,-0.99709 0.062,-1.49898 -62.86069,19.32463 -119.349691,42.72844 -167.128904,68.57301 8.36204,21.42305 18.76659,41.99155 31.069734,61.421 11.001963,-8.06854 30.402062,-21.44235 36.339829,-25.66107 27.665291,-17.07821 59.982051,-32.87841 95.966451,-46.79244 16.38948,-5.79679 53.74098,-18.71795 71.3922,-23.68799 18.3821,-4.71538 57.20647,-14.29851 76.65499,-18.00943 18.15484,-3.07633 75.40176,-11.08217 93.11442,-13.04572 28.22325,-2.51354 55.68608,-3.63365 82.02353,-3.39911 45.23025,0.40277 87.15535,4.75869 123.99815,12.71745 21.46183,4.6362 49.44178,13.75068 68.78816,21.51432 6.45953,-23.57712 10.48982,-47.75325 12.02812,-72.15078 -46.7275,-9.53718 -99.93677,-14.88743 -157.47128,-15.48565 -4.32827,-0.0451 -8.68443,-0.0598 -13.06031,-0.051 z m -46.74139,73.17564 c -22.63511,0.0771 -46.18012,1.18095 -70.35278,3.36631 -1.41953,31.45057 -3.51982,62.50509 -6.25115,93.09981 97.0034,-11.98786 181.52437,-35.19792 241.60655,-63.71504 4.03939,-1.91729 7.95822,-3.85582 11.76925,-5.81349 -15.24781,-5.93948 -32.43148,-11.0031 -51.35863,-15.09175 -34.03512,-7.35227 -73.42191,-11.44 -116.25899,-11.8203 -3.0344,-0.0269 -6.08606,-0.0359 -9.15425,-0.0256 z m -89.98517,5.36127 c -17.73077,2.00833 -35.75809,4.60849 -53.97361,7.79752 -1.61244,30.46278 -4.01308,60.44696 -7.12646,89.86483 -0.0952,0.006 -0.1871,0.0108 -0.28083,0.0149 -1.81559,15.51747 -5.56811,49.0085 -7.79022,64.25481 -0.14006,0.006 -0.28226,0.0168 -0.42306,0.0256 -2.78623,17.64216 -8.18402,53.10483 -11.503,70.27254 -0.20522,0.0109 -0.41096,0.0225 -0.61637,0.0329 -1.44381,6.98027 -5.46557,29.22776 -7.34893,38.24361 12.96528,1.47131 26.00123,2.23349 39.04963,2.28311 6.30214,-0.0575 12.60168,-0.28132 18.89204,-0.67109 2.38751,-13.18246 6.0478,-34.40993 7.62246,-43.55014 2.79352,-17.23243 7.72314,-52.88847 10.08792,-70.54609 1.90672,-15.32368 5.40445,-49.03635 6.97691,-64.64141 2.81032,-30.66082 4.97402,-61.81101 6.43352,-93.38063 z m -73.69356,11.47017 c -19.6317,3.8846 -38.71551,8.33169 -57.12469,13.27548 -1.81409,25.4923 -4.34515,50.4996 -7.52763,74.9299 -0.13632,-9.1e-4 -0.27796,-9.1e-4 -0.41578,-0.004 -2.29736,15.81085 -6.91388,49.16999 -9.77424,64.58305 0,0 -5.07657,25.18258 -7.70271,37.77705 -2.47756,11.13313 -5.11778,22.05239 -7.88143,32.79847 -0.6136,0.006 -1.2322,0.0222 -1.84543,0.0292 -0.39662,1.42903 -2.01566,10.23581 -3.30792,17.04659 19.71731,6.9721 40.00703,12.205 60.63687,15.63881 0.16656,-0.73218 0.33896,-1.45673 0.5033,-2.19191 1.02666,-4.59326 5.01241,-27.12207 6.03963,-31.99974 0.23864,-0.0108 0.47235,-0.0191 0.71118,-0.0291 3.39646,-17.05208 8.86213,-52.49484 11.74005,-70.25066 0.16619,-0.006 0.32981,-0.0131 0.496,-0.0186 2.28019,-15.20229 6.4163,-48.61797 8.28624,-64.20738 3.10386,-28.58182 5.52109,-57.73518 7.16656,-87.37386 z m -77.08534,18.90663 c -18.04056,5.33398 -35.35673,11.14287 -51.85097,17.34202 -1.83818,16.60732 -4.11351,32.85718 -6.76904,48.70715 16.59265,1.38812 33.74811,2.36516 51.3732,2.89581 3.00284,-22.47125 5.44186,-45.48197 7.24681,-68.94498 z m -7.24681,68.94498 c -17.79445,-0.52145 -35.17165,-1.48249 -52.05521,-2.84839 -1.46884,7.71842 -5.55805,33.30712 -7.21399,40.80024 -1.93491,8.75279 -4.00887,17.32508 -6.18914,25.74495 12.38426,0.56324 24.95444,0.9579 37.66736,1.20355 -12.65559,-0.23932 -24.95446,-0.61853 -37.66736,-1.20355 -3.77638,13.12476 -11.33997,38.57645 -16.75121,54.61551 16.51076,10.49975 33.85358,19.62981 51.85464,27.29863 3.86779,-14.08774 10.69892,-37.59602 13.52349,-50.28638 0.90024,-4.04337 5.39397,-26.07992 6.2548,-30.17622 2.96457,-15.39916 8.18328,-49.1079 10.57662,-65.14834 z m 445.24667,-64.87482 c -4.279,2.21314 -8.63522,4.40302 -13.15148,6.54657 -66.49045,31.55843 -158.02511,56.21157 -262.40966,68.47086 -1.53999,15.67739 -3.24605,31.22968 -5.11692,46.63929 88.83001,-9.06049 171.14525,-24.81055 242.81376,-45.16219 15.62337,-23.89891 28.33492,-49.57915 37.8643,-76.49453 z m -510.48254,21.40126 c -22.92099,9.4798 -43.94886,19.72903 -62.8215,30.49714 0.95252,0.17645 1.94461,0.33363 2.90311,0.50696 l -2.95052,-0.41579 c 0,0 -37.143324,24.70409 -54.024672,37.59809 22.85174,31.71306 50.737412,59.47432 82.552382,82.18401 3.02707,-8.51249 5.91843,-17.32584 8.66918,-26.40874 -0.0262,-9e-4 -0.0541,-0.007 -0.0803,-0.0108 0.18487,-0.67147 10.6795,-38.97642 13.08219,-49.84872 1.25596,-5.68197 6.88935,-35.25049 6.91493,-35.38428 0,7.1e-4 0.0199,9.1e-4 0.0218,0.004 2.17508,-12.6221 4.09564,-25.5393 5.73328,-38.72138 z m 455.07198,79.29914 c -68.85657,17.66666 -145.6494,31.19651 -227.57246,39.23927 -2.31304,17.69352 -4.83811,35.20023 -7.57505,52.49289 -1.57395,9.35682 -5.08741,30.08735 -7.43645,43.32403 95.72262,-10.59774 183.15243,-59.27341 242.58396,-135.05619 z"
       id="path5313"
       inkscape:connector-curvature="0"
       sodipodi:nodetypes="cccccccccccccccccccccccccccsccccccccccscccsccccccscccccccccccccccccccccccccccccccccccccccccccccccccccccccscccccccccccsccccccccccccccccccccccccssccscccccscsccccccccccccccccccccccccccccccccccccccccccscccccccccscccccccccccccccccccccccc" />
  </g>
</svg>
